<svg width="480" height="221" viewBox="0 0 480 221" fill="none" xmlns="http://www.w3.org/2000/svg">
<path d="M427.138 108.31C487.242 110.846 499.234 192.963 446.801 215.959C422.508 226.551 392.052 220.502 378.275 197.339L342.994 138.023C333.539 122.107 316.052 112.853 297.114 112.742L162.181 111.906C132.953 111.711 112.007 83.6416 111.951 56.2973C111.895 28.9531 134.068 1.85974 163.52 0.633288C188.259 -0.398044 211.352 0.0758112 236.146 0.35455C253.299 0.549666 271.093 9.49717 279.739 24.1867L314.378 83.0283C322.94 97.5785 339.926 107.502 356.911 107.641L427.166 108.31H427.138ZM56.4776 107.78C25.2964 107.78 0 133.118 0 164.364C2.98425 239.428 109.999 239.401 112.955 164.364C112.955 133.118 87.6589 107.78 56.4776 107.78Z" fill="url(#paint0_linear_993_56358)"/>
<defs>
<linearGradient id="paint0_linear_993_56358" x1="0" y1="110.512" x2="480.018" y2="110.512" gradientUnits="userSpaceOnUse">
<stop stop-color="#1B6FE1"/>
<stop offset="1" stop-color="#145AB6"/>
</linearGradient>
</defs>
</svg>
